HIERARCHY
ROOT Hips
{
	OFFSET 0.000000 0.000000 0.000000 
	CHANNELS 6 Xposition Yposition Zposition Zrotation Yrotation Xrotation
	JOINT LeftUpLeg
	{
		OFFSET 1.363060 -1.794630 0.839290 
		CHANNELS 3 Zrotation Yrotation Xrotation
		JOINT LeftLeg
		{
			OFFSET 2.448110 -6.726130 0.000000 
			CHANNELS 3 Zrotation Yrotation Xrotation
			JOINT LeftFoot
			{
				OFFSET 2.562200 -7.039590 0.000000 
				CHANNELS 3 Zrotation Yrotation Xrotation
				JOINT LeftToeBase
				{
					OFFSET 0.157640 -0.433110 2.322550 
					CHANNELS 3 Zrotation Yrotation Xrotation
					End Site
					{
						OFFSET 0.000000 0.000000 0.000000 
					}
				}
			}
		}
	}
	JOINT RightUpLeg
	{
		OFFSET -1.305520 -1.794630 0.839290 
		CHANNELS 3 Zrotation Yrotation Xrotation
		JOINT RightLeg
		{
			OFFSET -2.542530 -6.985550 0.000000 
			CHANNELS 3 Zrotation Yrotation Xrotation
			JOINT RightFoot
			{
				OFFSET -2.568260 -7.056230 0.000000 
				CHANNELS 3 Zrotation Yrotation Xrotation
				JOINT RightToeBase
				{
					OFFSET -0.164730 -0.452590 2.363150 
					CHANNELS 3 Zrotation Yrotation Xrotation
					End Site
					{
						OFFSET 0.000000 0.000000 0.000000 
					}
				}
			}
		}
	}
	JOINT Spine
	{
		OFFSET 0.028270 2.035590 -0.193380 
		CHANNELS 3 Zrotation Yrotation Xrotation
		JOINT Spine1
		{
			OFFSET 0.056720 2.048850 -0.042750 
			CHANNELS 3 Zrotation Yrotation Xrotation
			JOINT Neck1
			{
				OFFSET -0.054170 1.746240 0.172020 
				CHANNELS 3 Zrotation Yrotation Xrotation
				JOINT Head
				{
					OFFSET 0.104070 1.761360 -0.123970 
					CHANNELS 3 Zrotation Yrotation Xrotation
					End Site
					{
						OFFSET 0.000000 0.000000 0.000000 
					}
				}
			}
			JOINT LeftArm
			{
				OFFSET 3.362410 1.200890 -0.311210 
				CHANNELS 3 Zrotation Yrotation Xrotation
				JOINT LeftForeArm
				{
					OFFSET 4.983000 -0.000000 -0.000000 
					CHANNELS 3 Zrotation Yrotation Xrotation
					JOINT LeftHand
					{
						OFFSET 3.483560 -0.000000 -0.000000 
						CHANNELS 3 Zrotation Yrotation Xrotation
						JOINT LeftHandIndex1
						{
							OFFSET 0.715260 -0.000000 -0.000000 
							CHANNELS 3 Zrotation Yrotation Xrotation
							End Site
							{
								OFFSET 0.000000 0.000000 0.000000 
							}
						}
					}
				}
			}
			JOINT RightArm
			{
				OFFSET -3.136600 1.374050 -0.404650 
				CHANNELS 3 Zrotation Yrotation Xrotation
				JOINT RightForeArm
				{
					OFFSET -5.241900 -0.000000 -0.000000 
					CHANNELS 3 Zrotation Yrotation Xrotation
					JOINT RightHand
					{
						OFFSET -3.444170 -0.000000 -0.000000 
						CHANNELS 3 Zrotation Yrotation Xrotation
						JOINT RightHandIndex1
						{
							OFFSET -0.622530 -0.000000 -0.000000 
							CHANNELS 3 Zrotation Yrotation Xrotation
							End Site
							{
								OFFSET 0.000000 0.000000 0.000000 
							}
						}
					}
				}
			}
		}
	}
}
MOTION
Frames: 18
Frame Time: 0.041667
7.892200 10.225600 12.813400 1.022700 -1.253900 102.590000 -23.814400 -0.782400 -29.996100 16.895600 19.767300 80.889400 1.193800 2.844500 19.905900 6.035500 14.462600 45.123800 17.007800 6.939200 -28.724200 -16.282800 -19.665400 79.073200 -1.120800 -8.482000 18.971700 -0.654200 -5.173500 14.404000 -3.833000 2.022900 -4.811800 -5.452400 0.977200 1.703400 0.952800 -2.298100 38.657400 -0.333900 -0.475700 13.962000 89.328700 -47.005500 -98.745700 12.972100 -21.246300 -2.443200 0.000000 0.000000 11.750600 -7.125000 0.000000 0.000000 -73.508000 42.619600 -67.000200 -19.604000 30.162300 -5.330900 0.000000 0.000000 -9.792600 7.125000 0.000000 0.000000 
7.896700 10.227000 12.810700 0.986900 -1.328500 102.510000 -23.710200 -0.374600 -29.719600 17.546000 19.855000 82.808400 1.209000 2.615300 20.083500 5.897900 14.328700 44.570500 16.938000 6.370100 -28.856800 -17.114400 -19.799200 81.535800 -1.190100 -8.766400 19.559800 -0.707000 -5.374200 14.979100 -3.810600 2.035100 -4.874800 -5.371400 0.981400 1.604000 1.104800 -2.324200 38.515800 -0.234400 -0.502400 13.944500 89.070600 -46.966600 -98.197200 13.111500 -21.450400 -2.493900 0.000000 0.000000 9.314000 -7.125000 0.000000 0.000000 -73.469000 42.573700 -66.930600 -19.596700 30.153400 -5.327300 0.000000 0.000000 -9.188400 7.125000 0.000000 0.000000 
7.900300 10.227300 12.809500 0.957700 -1.391200 102.443000 -23.569800 -0.021200 -29.442000 18.180900 19.920500 84.674600 1.222400 2.382400 20.247800 5.763600 14.195200 44.025300 16.876700 5.796900 -28.989600 -17.927300 -19.896700 83.929700 -1.255100 -9.110700 20.102600 -0.766400 -5.590200 15.600000 -3.788800 2.037900 -4.929500 -5.303700 0.981100 1.521700 1.175000 -2.369800 38.383000 -0.178700 -0.539600 13.927400 88.747000 -46.937300 -97.592900 13.284400 -21.702600 -2.557500 0.000000 0.000000 6.951400 -7.125000 0.000000 0.000000 -73.433500 42.504300 -66.820300 -19.590600 30.145900 -5.324200 0.000000 0.000000 -8.627700 7.125000 0.000000 0.000000 
7.903000 10.227100 12.809700 0.937700 -1.447100 102.391000 -23.401900 0.274200 -29.171700 18.798300 19.965300 86.484600 1.232900 2.133600 20.394300 5.626900 14.056800 43.465300 16.815600 5.220800 -29.125400 -18.715600 -19.960400 86.242200 -1.317900 -9.468000 20.618700 -0.827900 -5.805100 16.220100 -3.768200 2.034500 -4.977000 -5.245500 0.978000 1.453300 1.087300 -2.461300 38.301400 -0.209800 -0.599200 13.931800 88.353900 -46.916300 -96.922200 13.480800 -21.987600 -2.630600 0.000000 0.000000 4.852700 -7.125000 0.000000 0.000000 -73.400400 42.411200 -66.675500 -19.573600 30.125200 -5.315700 0.000000 0.000000 -8.122700 7.125000 0.000000 0.000000 
7.904800 10.226600 12.811700 0.930600 -1.498700 102.357000 -23.210200 0.506800 -28.920200 19.397800 19.991300 88.239000 1.240700 1.876400 20.522000 5.491800 13.917100 42.906200 16.749800 4.645400 -29.270400 -19.474100 -19.993400 88.462100 -1.381200 -9.792900 21.125200 -0.887500 -6.005000 16.798900 -3.749900 2.027700 -5.019700 -5.195700 0.973500 1.396200 0.976000 -2.559900 38.210200 -0.253900 -0.662600 13.932300 87.910300 -46.897400 -96.224300 13.679100 -22.274100 -2.705300 0.000000 0.000000 3.136300 -7.125000 0.000000 0.000000 -73.365400 42.297000 -66.511600 -19.533400 30.076100 -5.295500 0.000000 0.000000 -7.663200 7.125000 0.000000 0.000000 
7.905800 10.225900 12.815600 0.933300 -1.552800 102.345000 -23.006500 0.676000 -28.697500 19.978600 20.000000 89.937400 1.245200 1.623900 20.623800 5.364400 13.782700 42.374000 16.667300 4.075500 -29.432600 -20.200000 -19.999000 90.584900 -1.448600 -10.036400 21.643900 -0.943600 -6.186800 17.327400 -3.736900 2.023500 -5.062300 -5.151500 0.970400 1.345900 0.923000 -2.633100 38.071800 -0.265800 -0.713900 13.913500 87.437400 -46.885200 -95.519700 13.856700 -22.529500 -2.773000 0.000000 0.000000 1.913400 -7.125000 0.000000 0.000000 -73.320200 42.164200 -66.326700 -19.460300 29.986600 -5.258900 0.000000 0.000000 -7.218700 7.125000 0.000000 0.000000 
7.906300 10.225200 12.821400 0.949100 -1.615300 102.358000 -22.801200 0.776200 -28.510100 20.540600 19.993000 91.580900 1.247100 1.393200 20.700500 5.248800 13.658600 41.886700 16.560100 3.507100 -29.617100 -20.890800 -19.981000 92.605300 -1.521100 -10.184200 22.179000 -0.995200 -6.349000 17.800300 -3.728400 2.023100 -5.111100 -5.107200 0.969200 1.293800 0.894800 -2.685200 37.913300 -0.262800 -0.755700 13.886900 86.986300 -46.882300 -94.951500 13.977700 -22.702800 -2.819500 0.000000 0.000000 1.209100 -7.125000 0.000000 0.000000 -73.259900 42.025300 -66.128100 -19.351500 29.853100 -5.204600 0.000000 0.000000 -6.729600 7.125000 0.000000 0.000000 
7.906200 10.224600 12.829200 0.974600 -1.687600 102.391000 -22.598400 0.813400 -28.360400 21.083400 19.971800 93.169200 1.247100 1.202400 20.752800 5.152600 13.553600 41.477900 16.425100 2.943500 -29.824500 -21.545700 -19.942600 94.523600 -1.598500 -10.211100 22.727500 -1.040700 -6.487900 18.206800 -3.724600 2.032500 -5.169400 -5.059000 0.973100 1.234700 0.999900 -2.691600 37.694100 -0.188900 -0.773300 13.834900 86.583800 -46.899500 -94.554300 14.026400 -22.772400 -2.838300 0.000000 0.000000 1.045200 -7.125000 0.000000 0.000000 -73.170400 41.885900 -65.909600 -19.208900 29.677400 -5.133900 0.000000 0.000000 -6.124700 7.125000 0.000000 0.000000 
7.905700 10.223800 12.838900 1.006600 -1.770400 102.447000 -22.402100 0.790700 -28.253200 21.605500 19.938100 94.698700 1.246000 1.059700 20.783700 5.077600 13.470600 41.156800 16.261300 2.389100 -30.056900 -22.163400 -19.887400 96.336800 -1.678900 -10.131900 23.278200 -1.082300 -6.612300 18.571800 -3.723800 2.053700 -5.239100 -5.003400 0.983100 1.168800 0.983100 -2.733000 37.549900 -0.185300 -0.804700 13.813600 86.244100 -46.944100 -94.356200 13.996200 -22.729200 -2.826600 0.000000 0.000000 1.391900 -7.125000 0.000000 0.000000 -73.049200 41.749300 -65.673900 -19.040800 29.469300 -5.050900 0.000000 0.000000 -5.331200 7.125000 0.000000 0.000000 
7.905000 10.222700 12.850600 1.043000 -1.861900 102.523000 -22.212300 0.715800 -28.190200 22.105300 19.893400 96.166100 1.244200 0.958800 20.797800 5.018300 13.404400 40.901700 16.071800 1.845600 -30.310600 -22.743100 -19.818600 98.043600 -1.759600 -9.949800 23.816000 -1.119200 -6.720300 18.889300 -3.724300 2.090400 -5.318400 -4.936600 1.001200 1.098700 0.849300 -2.815700 37.486600 -0.251100 -0.852300 13.824400 85.982300 -47.022600 -94.385000 13.893500 -22.582200 -2.787100 0.000000 0.000000 2.138400 -7.125000 0.000000 0.000000 -72.884100 41.617200 -65.414600 -18.858700 29.242700 -4.961600 0.000000 0.000000 -4.277700 7.125000 0.000000 0.000000 
7.903900 10.221300 12.864100 1.081100 -1.946300 102.615000 -22.008800 0.600500 -28.170500 22.581500 19.839500 97.567300 1.242700 0.897700 20.802800 4.977400 13.358300 40.725100 15.880000 1.325500 -30.577600 -23.283100 -19.739600 99.639200 -1.836300 -9.695100 24.318100 -1.150300 -6.809800 19.153200 -3.720100 2.140500 -5.403000 -4.861000 1.026400 1.029400 0.657600 -2.925500 37.466500 -0.353200 -0.909900 13.849600 85.784100 -47.131500 -94.614500 13.739800 -22.361500 -2.728300 0.000000 0.000000 3.097200 -7.125000 0.000000 0.000000 -72.678200 41.492600 -65.151400 -18.672200 29.009300 -4.870800 0.000000 0.000000 -2.921100 7.125000 0.000000 0.000000 
7.902500 10.219500 12.879200 1.121100 -2.020200 102.710000 -21.787200 0.451400 -28.181600 23.032600 19.778100 98.898400 1.241800 0.870400 20.803300 4.955000 13.332900 40.627900 15.694000 0.827200 -30.842100 -23.782300 -19.653500 101.120400 -1.906600 -9.380900 24.773300 -1.173100 -6.874700 19.344600 -3.704900 2.198100 -5.485100 -4.770600 1.056000 0.963900 0.399600 -3.056800 37.486400 -0.493200 -0.977100 13.890900 85.603900 -47.259000 -94.925700 13.564700 -22.108900 -2.662100 0.000000 0.000000 4.029200 -7.125000 0.000000 0.000000 -72.439500 41.378500 -64.887000 -18.494600 28.785800 -4.785000 0.000000 0.000000 -1.302000 7.125000 0.000000 0.000000 
7.900900 10.217400 12.895900 1.162800 -2.076800 102.807000 -21.540800 0.269200 -28.221900 23.457100 19.711000 100.154900 1.243100 0.875300 20.812700 4.948300 13.325300 40.598800 15.525400 0.354900 -31.102600 -24.240400 -19.563300 102.485400 -1.969000 -9.031500 25.176200 -1.187800 -6.916200 19.467200 -3.678000 2.261900 -5.561600 -4.668600 1.089200 0.907200 0.203700 -3.183300 37.477400 -0.600500 -1.041400 13.919200 85.409400 -47.398800 -95.190300 13.395300 -21.863700 -2.598700 0.000000 0.000000 4.751200 -7.125000 0.000000 0.000000 -72.162800 41.270800 -64.619700 -18.335600 28.584700 -4.708700 0.000000 0.000000 0.482200 7.125000 0.000000 0.000000 
7.899300 10.215100 12.913600 1.204700 -2.119600 102.901000 -21.275600 0.053800 -28.282800 23.853500 19.640200 101.332300 1.247800 0.907300 20.843200 4.954100 13.331900 40.623800 15.372100 -0.089000 -31.354400 -24.658100 -19.471600 103.735700 -2.024000 -8.655800 25.533700 -1.197100 -6.942400 19.544800 -3.638700 2.326600 -5.629100 -4.554300 1.123400 0.861000 0.054700 -3.295700 37.436200 -0.680000 -1.100400 13.934200 85.166800 -47.548800 -95.328100 13.245400 -21.645700 -2.543100 0.000000 0.000000 5.181100 -7.125000 0.000000 0.000000 -71.857800 41.169000 -64.333100 -18.203200 28.416500 -4.645500 0.000000 0.000000 2.219900 7.125000 0.000000 0.000000 
7.897600 10.212500 12.932800 1.240000 -2.154200 102.993000 -21.003700 -0.196400 -28.359300 24.218800 19.567800 102.420800 1.256300 0.960900 20.900000 4.967800 13.347400 40.683300 15.229400 -0.496900 -31.597500 -25.035200 -19.381000 104.869400 -2.072600 -8.293300 25.852900 -1.206500 -6.968500 19.622100 -3.591500 2.394000 -5.688800 -4.429700 1.159600 0.824900 -0.066300 -3.398900 37.372500 -0.742000 -1.156700 13.940500 84.872400 -47.711500 -95.305900 13.114500 -21.454700 -2.495000 0.000000 0.000000 5.319700 -7.125000 0.000000 0.000000 -71.526600 41.074900 -64.024400 -18.094700 28.278300 -4.594000 0.000000 0.000000 3.744600 7.125000 0.000000 0.000000 
7.895900 10.209600 12.953200 1.266900 -2.186300 103.082000 -20.736300 -0.486600 -28.451100 24.551300 19.495900 103.415300 1.268500 1.024300 20.984800 4.983000 13.364700 40.749300 15.091300 -0.864400 -31.836500 -25.372800 -19.293300 105.888900 -2.116400 -7.954300 26.144400 -1.217500 -6.999100 19.712800 -3.541300 2.466400 -5.743800 -4.299500 1.198600 0.796200 -0.181400 -3.498500 37.299700 -0.798900 -1.212800 13.944300 84.540000 -47.892700 -95.154900 12.990600 -21.273400 -2.449900 0.000000 0.000000 5.261700 -7.125000 0.000000 0.000000 -71.169200 40.988600 -63.677000 -18.003200 28.161200 -4.550700 0.000000 0.000000 4.909300 7.125000 0.000000 0.000000 
7.894500 10.206300 12.974700 1.286300 -2.214600 103.171000 -20.473500 -0.819200 -28.554900 24.850300 19.426400 104.312700 1.285100 1.081300 21.108300 4.991300 13.374000 40.785100 14.963700 -1.188700 -32.074900 -25.671100 -19.210800 106.793500 -2.157800 -7.648400 26.421200 -1.226900 -7.025000 19.789500 -3.490200 2.543700 -5.794700 -4.169900 1.240400 0.773900 -0.295000 -3.596500 37.216400 -0.853700 -1.269300 13.944700 84.188200 -48.093000 -94.941400 12.856400 -21.076400 -2.401400 0.000000 0.000000 5.150100 -7.125000 0.000000 0.000000 -70.789400 40.906900 -63.279200 -17.919300 28.053700 -4.511200 0.000000 0.000000 5.637700 7.125000 0.000000 0.000000 
7.893200 10.202600 12.997300 1.295100 -2.252900 103.255000 -20.238000 -1.196500 -28.660200 25.111900 19.361600 105.100600 1.304700 1.113400 21.263000 4.982600 13.364100 40.747300 14.829200 -1.474000 -32.308200 -25.931600 -19.134700 107.586600 -2.195900 -7.380600 26.677700 -1.236800 -7.052300 19.870500 -3.442700 2.627500 -5.841700 -4.039000 1.285800 0.754400 -0.402100 -3.695600 37.120200 -0.904200 -1.327300 13.940500 83.835100 -48.309800 -94.726200 12.698200 -20.843400 -2.344800 0.000000 0.000000 5.103200 -7.125000 0.000000 0.000000 -70.388400 40.821900 -62.820300 -17.831500 27.940900 -4.470000 0.000000 0.000000 5.961100 7.125000 0.000000 0.000000 
